<svg width="89" height="40" viewBox="0 0 89 40" fill="none" xmlns="http://www.w3.org/2000/svg"><circle cx="75.546" cy="13.364" r="13.364" fill="#A4E7ED"/><circle cx="17.181" cy="13.364" r="13.364" fill="#73C3F4"/><circle cx="14.091" cy="31.364" r="8.636" fill="#DD71C6"/><circle cx="5.364" cy="24.818" r="5.364" fill="#FFD900"/><path d="M15.348 24.86c.067-.192.112-.391.136-.593 0 0 .663.642.99 1.865.326 1.222.7 1.646 1.271 2.182.572.536 2.302 1.643 4.089 3.656 1.75 1.976 4.037 4.66 4.12 4.757-.056-.115-1.887-3.84-2.891-5.184-1.02-1.365-1.752-2.513-2.727-2.972-.975-.46-1.707-1.607-1.701-3.411.006-1.804-.948-2.564-1.53-2.902-.58-.338-2.387-1.949-1.436-4.403.95-2.453 5.768-4.154 6.996-4.481 1.228-.328 3.98-1.262 3.98-1.262s-2.814.13-4.554.73c-1.712.588-3.614 1.065-3.673 1.08.03-.032.591-.668.439-1.3a1.2 1.2 0 0 0-1.3-.953c-.46.064-.59.146-.61.16.058-.061 1.001-1.017 1.587-1.4.585-.383 1.26-1.038 1.484-1.425 0 0-2.282 1.265-3.217 1.809-.936.544-1.989 1.384-3.078 2.822-1.09 1.438-1.281 2.929-1.064 4.345.217 1.417.86 2.358 1.129 2.876.269.519.514 1.434.185 1.915-.33.482-1.528 2.014-1.606 3.312-.078 1.297.465 2.234 1.117 3.075.651.84 2 3.33 2.956 5.793.956 2.464 1.528 2.902 1.528 2.902s-.79-5.161-1.4-6.604c-.612-1.443-1.417-3.094-1.602-3.302-.184-.208-.75-.848-.409-1.53.341-.68.667-1.167.79-1.557Zm-.412-9.748s-.034-1.101.6-1.668c0 0 .146.91 1.039 1.065.002 0-1.033.535-1.638.603Z" fill="#4D85B0"/><path d="M25.326 21.49c-.127-1.147-.26-2.263-.4-3.315a37.382 37.382 0 0 0-.5-2.946l-.026-.12h-1.251l-.045.065a53.408 53.408 0 0 0-1.878 2.837c-.316.51-.644 1.051-.977 1.615-.333.563-.685 1.168-1.051 1.8l-.134.228h1.57l.043-.08c.139-.26.277-.514.412-.757l.357-.641h2.321c.02.191.038.386.056.587.023.249.043.5.056.749l.008.142h1.454l-.015-.164Zm-3.212-2.514c.264-.454.517-.874.756-1.25.193-.306.374-.59.544-.855.044.326.085.647.121.96.046.387.084.771.114 1.145h-1.535ZM33.32 17.587c.188-.293.288-.633.289-.98a1.313 1.313 0 0 0-.232-.801 1.574 1.574 0 0 0-.572-.479 2.424 2.424 0 0 0-.754-.226 5.632 5.632 0 0 0-.795-.056c-.306 0-.615.012-.918.036a6.561 6.561 0 0 0-.877.13l-.09.02-1.512 6.286.148.033c.306.068.616.112.928.134.342.028.673.042.98.042 1.065 0 1.895-.2 2.467-.6.59-.412.89-1 .89-1.754a1.36 1.36 0 0 0-.243-.8 1.418 1.418 0 0 0-.4-.377c.279-.14.517-.349.69-.608Zm-1.911.025a2.497 2.497 0 0 1-.51.05h-.677l.33-1.362c.064-.006.138-.013.222-.018.134-.01.272-.011.405-.013.263-.012.525.035.767.138.1.048.227.145.227.433a.645.645 0 0 1-.093.36.857.857 0 0 1-.265.257 1.226 1.226 0 0 1-.406.155Zm.262 2.373a1.04 1.04 0 0 1-.383.316c-.171.08-.354.133-.542.158-.199.027-.4.042-.6.043-.164 0-.316 0-.45-.013l-.158-.012.4-1.64h.91c.363 0 .62.063.767.186a.561.561 0 0 1 .207.449.838.838 0 0 1-.151.513ZM37.849 16.92c-.28-.26-.672-.391-1.165-.391-.423-.006-.841.089-1.22.277-.355.18-.67.43-.926.735-.258.31-.456.666-.586 1.048-.133.392-.2.803-.2 1.217a2.4 2.4 0 0 0 .116.753 1.685 1.685 0 0 0 1.015 1.07c.294.11.606.163.92.156a3.865 3.865 0 0 0 1.575-.307l.1-.045-.12-1.19-.187.076c-.37.156-.766.238-1.168.241-.777 0-.882-.366-.886-.651.342-.015.684-.043 1.019-.086a3.752 3.752 0 0 0 1.05-.282c.303-.133.57-.337.777-.595.217-.292.326-.65.31-1.015a1.322 1.322 0 0 0-.424-1.01Zm-1.328.801c.169 0 .287.033.344.094.058.06.09.141.091.225 0 .242-.128.413-.4.539-.272.126-.719.207-1.314.24a1.875 1.875 0 0 1 .438-.736c.112-.112.244-.203.389-.267.142-.063.296-.095.452-.095ZM39.917 19.913c-.01.072-.016.145-.016.218 0 .06.006.121.019.18a.236.236 0 0 0 .056.113c.038.04.086.069.138.086.097.03.198.044.3.04.144 0 .288-.02.427-.057.13-.036.256-.079.38-.13l.188-.079.11 1.186-.1.043a3.696 3.696 0 0 1-.545.18c-.254.06-.515.089-.776.085-.556 0-.965-.129-1.215-.383-.25-.254-.376-.6-.376-1.03a3.4 3.4 0 0 1 .033-.466c.025-.17.058-.338.1-.505l.944-3.973 1.457-.23-.353 1.454h1.543l-.289 1.2h-1.544l-.42 1.754c-.031.124-.05.23-.061.314ZM43.53 19.913c-.01.073-.015.146-.016.22 0 .06.006.12.019.178.008.042.028.081.056.113a.349.349 0 0 0 .14.086c.096.03.198.044.3.04.144 0 .288-.019.427-.057.13-.036.255-.079.379-.13l.189-.079.11 1.186-.1.044c-.177.073-.36.133-.545.178-.254.061-.515.09-.776.086-.556 0-.965-.129-1.215-.383-.25-.254-.377-.6-.376-1.03a3.4 3.4 0 0 1 .033-.466 4.96 4.96 0 0 1 .1-.505l.944-3.973 1.457-.23-.354 1.453h1.542l-.288 1.2h-1.545l-.423 1.751a4.402 4.402 0 0 0-.058.318ZM49.793 16.924a1.35 1.35 0 0 0-.5-.293 2.088 2.088 0 0 0-.664-.1 2.67 2.67 0 0 0-1.221.277c-.356.18-.672.431-.927.738-.258.31-.457.665-.587 1.047a3.727 3.727 0 0 0-.2 1.216 2.4 2.4 0 0 0 .116.754 1.69 1.69 0 0 0 1.015 1.071c.294.11.607.162.92.155a3.912 3.912 0 0 0 1.576-.307l.1-.045-.125-1.19-.187.077a3.07 3.07 0 0 1-1.166.24c-.778 0-.883-.366-.887-.651.344-.014.685-.043 1.018-.086a3.752 3.752 0 0 0 1.05-.28c.306-.132.574-.335.783-.594.217-.291.328-.649.312-1.012a1.326 1.326 0 0 0-.426-1.017Zm-1.328.8c.168 0 .287.034.343.1.059.06.092.141.092.225 0 .241-.128.413-.4.54-.272.125-.718.201-1.319.232.036-.112.082-.22.138-.323.08-.15.181-.29.3-.412.112-.112.243-.202.388-.266.144-.064.3-.097.458-.095ZM54.327 16.774l-.41 1.182-.141-.049a2.287 2.287 0 0 0-.829-.127 2.434 2.434 0 0 0-.488.053l-.914 3.83h-1.4l1.146-4.762.08-.027c.274-.09.553-.165.836-.224a4.7 4.7 0 0 1 .984-.1c.08 0 .165.005.26.014.096.009.183.02.272.032.089.012.18.03.258.048.075.017.148.041.22.072l.126.058ZM32.672 23.434l-.085.208a74.441 74.441 0 0 1-1.443 3.302c-.485 1.036-1.001 2.03-1.545 2.966l-.043.076h-1.32l-.02-.128-.138-.956a50.362 50.362 0 0 1-.233-1.94c-.017-.175-.035-.358-.051-.547-.296.54-.589 1.066-.875 1.57-.366.647-.76 1.301-1.17 1.933l-.045.068H24.38l-.012-.137a29.513 29.513 0 0 1-.1-1.567 43.537 43.537 0 0 1-.03-1.591c0-.985.034-2.03.1-3.11l.01-.142h1.436l-.01.16a81.567 81.567 0 0 0-.09 1.715c-.023.559-.036 1.14-.036 1.719v.804c.1-.174.21-.352.315-.533.2-.337.395-.682.587-1.029.192-.346.38-.7.563-1.042.183-.343.356-.682.518-1.001l.042-.082H28.9l.007.142a42.626 42.626 0 0 0 .161 2.07c.035.35.072.695.108 1.031.016.154.033.3.05.45.1-.195.2-.401.3-.61a46.239 46.239 0 0 0 1.072-2.436 64.5 64.5 0 0 0 .5-1.263l.037-.1h1.538ZM35.993 25.241c-.28-.26-.672-.392-1.166-.392a2.67 2.67 0 0 0-1.221.278c-.356.18-.67.43-.926.736-.258.31-.456.666-.585 1.048a3.728 3.728 0 0 0-.2 1.216 2.4 2.4 0 0 0 .116.754 1.692 1.692 0 0 0 1.012 1.072c.295.109.607.161.92.154a3.933 3.933 0 0 0 1.578-.308l.1-.044-.122-1.19-.186.076c-.37.157-.767.238-1.168.241-.778 0-.883-.366-.887-.651a12.57 12.57 0 0 0 1.018-.086 3.798 3.798 0 0 0 1.052-.282c.305-.132.573-.336.781-.595.218-.293.328-.652.31-1.017a1.324 1.324 0 0 0-.426-1.01Zm-1.328.8c.168 0 .288.034.345.1.058.06.09.141.09.225 0 .241-.128.413-.4.54-.272.125-.718.206-1.313.238a1.866 1.866 0 0 1 .438-.735c.112-.112.243-.203.388-.267.142-.065.296-.1.452-.1ZM39.347 23.65a.849.849 0 0 1-.283.656.923.923 0 0 1-.633.25.8.8 0 0 1-.517-.177.664.664 0 0 1-.237-.549.868.868 0 0 1 .277-.66.893.893 0 0 1 .63-.257.811.811 0 0 1 .523.183.674.674 0 0 1 .24.554ZM38.944 24.967l-1.208 5.013h-1.4l1.209-5.013h1.398ZM43.91 25.201a2.637 2.637 0 0 0-.75-.263 3.995 3.995 0 0 0-.764-.08 3.662 3.662 0 0 0-1.335.236c-.386.147-.739.37-1.036.656-.29.285-.518.625-.67 1.001-.16.4-.24.826-.237 1.256 0 .51.142.927.421 1.24.28.312.718.478 1.29.478.194 0 .388-.027.575-.083.06-.018.118-.037.173-.057-.066.23-.193.437-.368.6-.2.178-.5.268-.9.268a2.58 2.58 0 0 1-.694-.085 2.19 2.19 0 0 1-.527-.218l-.146-.087-.511 1.166.123.066c.223.115.458.205.7.27.294.074.597.11.9.107.395.008.788-.043 1.167-.15.307-.09.59-.243.834-.45.231-.203.417-.453.546-.734.144-.31.254-.636.33-.97l.982-4.114-.104-.053Zm-2.814 3.343c-.222 0-.37-.054-.456-.166a.868.868 0 0 1-.14-.53c-.002-.236.04-.47.125-.69.08-.207.198-.397.35-.56a1.633 1.633 0 0 1 1.223-.52c.074 0 .148.005.222.015l-.53 2.201a1.382 1.382 0 0 1-.344.172 1.36 1.36 0 0 1-.45.078ZM48.78 26.532c-.002.289-.04.576-.112.856l-.622 2.592h-1.401l.611-2.547c.03-.134.06-.275.09-.419a1.84 1.84 0 0 0 .041-.374.637.637 0 0 0-.127-.408c-.093-.12-.313-.145-.481-.145-.113 0-.225.01-.335.029a3.226 3.226 0 0 0-.226.049l-.9 3.815h-1.401l1.701-7.096 1.456-.23-.55 2.3.16-.031c.148-.029.297-.043.447-.043.25-.006.5.036.734.123.198.075.377.194.523.348.14.153.242.336.3.535.063.21.094.427.092.646ZM50.697 28.481l-.014.161a3.785 3.785 0 0 1-.42 1.46 6.895 6.895 0 0 1-.848 1.276l-.065.076-1.058-.331.106-.166c.23-.363.422-.749.571-1.152.145-.38.236-.779.27-1.184l.012-.14h1.446ZM55.599 23.433 54.03 29.98h-1.444l1.568-6.547h1.444ZM59.988 26.514c0 .141-.012.283-.033.422a7.953 7.953 0 0 1-.078.446l-.623 2.601h-1.401l.6-2.545.09-.4c.026-.123.043-.247.05-.372a.65.65 0 0 0-.118-.425c-.074-.1-.246-.148-.5-.148a2.408 2.408 0 0 0-.541.054l-.911 3.84h-1.4l1.145-4.785.083-.025c.243-.073.525-.142.837-.206a5.238 5.238 0 0 1 1.044-.1c.593 0 1.039.151 1.326.451.287.3.43.698.43 1.192ZM64.818 25.158l-.51 1.148-.136-.061a1.759 1.759 0 0 0-.786-.167 1.38 1.38 0 0 0-1.11.53 1.833 1.833 0 0 0-.307.59c-.074.24-.111.49-.11.74-.001.132.014.263.045.39a.782.782 0 0 0 .136.29.57.57 0 0 0 .248.182c.141.05.29.074.44.07.185 0 .37-.026.548-.076a2.25 2.25 0 0 0 .408-.15l.2-.1.123 1.218-.095.045a3.47 3.47 0 0 1-.574.2c-.266.07-.54.104-.816.1a2.392 2.392 0 0 1-.912-.16 1.829 1.829 0 0 1-.652-.44 1.763 1.763 0 0 1-.385-.661 2.569 2.569 0 0 1-.12-.8 3.674 3.674 0 0 1 .2-1.218c.129-.374.326-.72.583-1.021a2.75 2.75 0 0 1 .933-.7c.394-.177.821-.264 1.252-.257.226-.001.452.02.673.062.202.04.399.103.587.186l.137.06Z" fill="#FFD900"/><path d="M28.469 33.333c.034.062.073.138.117.228a13.382 13.382 0 0 1 .28.619l.132.311.132-.311c.047-.111.094-.22.142-.324.048-.105.094-.2.139-.295.044-.096.082-.166.116-.228h.4a9.6 9.6 0 0 1 .052.433c.016.16.03.326.042.5.012.174.024.346.034.52.01.175.019.338.026.492h-.426c-.005-.19-.013-.396-.022-.618a15.594 15.594 0 0 0-.042-.673l-.114.261-.122.286c-.04.096-.079.186-.117.273l-.1.224h-.306l-.095-.224a28.372 28.372 0 0 1-.117-.273c-.041-.1-.081-.19-.123-.286l-.112-.261c-.019.226-.033.45-.042.673-.01.222-.017.429-.022.618h-.427l.027-.492c.01-.174.022-.347.034-.52.012-.173.026-.34.042-.5.016-.161.033-.3.052-.433h.42ZM30.371 34.55a.908.908 0 0 1 .06-.345.725.725 0 0 1 .16-.245.653.653 0 0 1 .225-.15.721.721 0 0 1 .262-.05.653.653 0 0 1 .5.193c.132.158.197.36.182.565v.08c0 .03 0 .055-.006.078h-.947a.274.274 0 0 0 .12.2.483.483 0 0 0 .286.076c.076 0 .151-.007.226-.021a.828.828 0 0 0 .181-.052l.056.339a.453.453 0 0 1-.09.034 1.463 1.463 0 0 1-.272.05 1.375 1.375 0 0 1-.157.009.936.936 0 0 1-.346-.06.644.644 0 0 1-.387-.404.952.952 0 0 1-.053-.298Zm.982-.16a.454.454 0 0 0-.018-.1.253.253 0 0 0-.13-.155.265.265 0 0 0-.121-.025.3.3 0 0 0-.121.023.255.255 0 0 0-.135.155.537.537 0 0 0-.027.1l.552.001ZM33.382 35.228a1.52 1.52 0 0 1-.13.032 3.159 3.159 0 0 1-.315.046 1.756 1.756 0 0 1-.159.007.94.94 0 0 1-.325-.053.662.662 0 0 1-.241-.154.675.675 0 0 1-.15-.24.907.907 0 0 1-.052-.319c-.002-.11.014-.219.045-.324a.706.706 0 0 1 .129-.245.554.554 0 0 1 .206-.155.702.702 0 0 1 .28-.053.672.672 0 0 1 .294.065v-.668l.418-.068v2.13Zm-.946-.7a.51.51 0 0 0 .087.311.301.301 0 0 0 .258.117h.1c.029 0 .059-.006.078-.01v-.76a.38.38 0 0 0-.1-.042.508.508 0 0 0-.128-.017c-.196-.003-.295.13-.295.4v.001ZM34.232 33.374a.228.228 0 0 1-.074.181.265.265 0 0 1-.35 0 .256.256 0 0 1 0-.362.266.266 0 0 1 .35 0 .227.227 0 0 1 .074.181Zm-.04 1.901h-.42v-1.474h.419l.002 1.474ZM34.514 34.538c0-.102.016-.204.05-.3a.702.702 0 0 1 .39-.415.787.787 0 0 1 .32-.06 1.025 1.025 0 0 1 .406.08l-.087.334a.692.692 0 0 0-.286-.056.329.329 0 0 0-.276.116.469.469 0 0 0-.091.3.493.493 0 0 0 .085.309.36.36 0 0 0 .3.109c.054 0 .109-.005.162-.014a.646.646 0 0 0 .16-.045l.06.342a1.205 1.205 0 0 1-.423.076.91.91 0 0 1-.349-.06.672.672 0 0 1-.24-.164.645.645 0 0 1-.137-.246c-.03-.1-.045-.203-.044-.306ZM36.448 33.761a.98.98 0 0 1 .31.042.477.477 0 0 1 .2.12c.048.055.083.12.1.191a.927.927 0 0 1 .03.25v.87c-.06.013-.143.028-.249.046a2.39 2.39 0 0 1-.387.026 1.214 1.214 0 0 1-.26-.025.573.573 0 0 1-.2-.082.39.39 0 0 1-.13-.15.524.524 0 0 1-.044-.228.4.4 0 0 1 .191-.361.619.619 0 0 1 .2-.077 1.218 1.218 0 0 1 .377-.017.74.74 0 0 1 .1.018v-.04a.232.232 0 0 0-.064-.17.313.313 0 0 0-.225-.066c-.07 0-.14.006-.21.017a.93.93 0 0 0-.18.043l-.052-.337a1.505 1.505 0 0 1 .21-.046c.043-.006.088-.013.136-.017.049-.005.098-.007.147-.007Zm.034 1.223h.118a.806.806 0 0 0 .09-.008v-.32c-.018 0-.043-.007-.076-.011a.782.782 0 0 0-.204 0 .303.303 0 0 0-.091.028.145.145 0 0 0-.084.137.142.142 0 0 0 .066.136.357.357 0 0 0 .181.038ZM38.058 35.305c-.1 0-.2-.013-.295-.04a.434.434 0 0 1-.18-.1.339.339 0 0 1-.09-.16.853.853 0 0 1-.023-.212v-1.626l.417-.068v1.608c0 .034.003.067.01.1a.165.165 0 0 0 .031.076c.018.023.042.04.07.051a.377.377 0 0 0 .12.025l-.06.346ZM40.36 33.54l.075.26c.027.097.056.195.087.3.03.105.062.206.093.31.03.102.063.2.093.286.024-.1.049-.2.074-.313.025-.112.05-.228.072-.347l.066-.358.061-.343h.454c-.066.325-.142.655-.227.99a13.5 13.5 0 0 1-.278.954h-.4c-.066-.18-.13-.368-.191-.566a55.112 55.112 0 0 1-.182-.593c-.06.2-.12.4-.18.594-.06.193-.123.385-.188.565h-.4c-.1-.301-.192-.62-.277-.955-.085-.335-.16-.665-.227-.99h.474l.062.344.07.358a11.852 11.852 0 0 0 .152.66c.034-.093.067-.19.1-.293.033-.103.062-.206.092-.308.03-.102.058-.2.083-.3.025-.1.048-.18.07-.255h.373ZM41.523 34.55a.908.908 0 0 1 .06-.345.735.735 0 0 1 .159-.245.656.656 0 0 1 .226-.149.718.718 0 0 1 .262-.05.653.653 0 0 1 .5.192c.132.158.197.36.183.565v.08c0 .03 0 .055-.005.078h-.95a.277.277 0 0 0 .122.2.48.48 0 0 0 .286.076c.076 0 .151-.007.225-.021a.827.827 0 0 0 .181-.052l.056.339a.463.463 0 0 1-.09.034 1.744 1.744 0 0 1-.428.059.94.94 0 0 1-.347-.06.644.644 0 0 1-.387-.404.98.98 0 0 1-.053-.298Zm.981-.16a.4.4 0 0 0-.018-.1.267.267 0 0 0-.047-.09.262.262 0 0 0-.082-.065.26.26 0 0 0-.122-.025.291.291 0 0 0-.12.023.264.264 0 0 0-.136.155.628.628 0 0 0-.027.1l.552.001ZM43.692 33.374a.23.23 0 0 1-.074.181.265.265 0 0 1-.35 0 .256.256 0 0 1 0-.362.265.265 0 0 1 .35 0 .228.228 0 0 1 .074.181Zm-.04 1.901h-.418v-1.474h.419v1.474ZM45.318 35.091c0 .241-.061.42-.183.537-.122.116-.312.175-.569.176a1.724 1.724 0 0 1-.52-.087l.074-.352a1.17 1.17 0 0 0 .452.084.34.34 0 0 0 .254-.078.28.28 0 0 0 .075-.2v-.053a.694.694 0 0 1-.296.062.6.6 0 0 1-.468-.18.733.733 0 0 1-.162-.507.822.822 0 0 1 .05-.3.645.645 0 0 1 .147-.23.68.68 0 0 1 .237-.147.925.925 0 0 1 .318-.052c.05 0 .1 0 .155.007.055.007.107.011.159.02.052.007.1.015.15.025.05.01.09.021.127.033v1.242Zm-.917-.6c0 .233.095.35.283.35.041 0 .082-.005.12-.017a.455.455 0 0 0 .1-.039v-.667c-.02 0-.044-.007-.072-.01a.983.983 0 0 0-.1 0 .285.285 0 0 0-.248.109.456.456 0 0 0-.083.274ZM45.71 35.276v-2.109l.418-.068v.708a.821.821 0 0 1 .536.009c.074.029.14.077.19.139a.526.526 0 0 1 .1.213c.02.09.03.182.03.275v.834h-.419v-.783a.571.571 0 0 0-.051-.286.207.207 0 0 0-.193-.085.587.587 0 0 0-.105.01l-.088.02v1.123h-.418ZM47.349 33.434l.418-.067v.434h.5v.349h-.5v.518a.416.416 0 0 0 .046.211.2.2 0 0 0 .186.078.746.746 0 0 0 .27-.048l.058.326a.974.974 0 0 1-.395.075.747.747 0 0 1-.283-.046.438.438 0 0 1-.273-.329 1.175 1.175 0 0 1-.027-.261v-1.24ZM50.61 34.9v.377h-1.301v-1.944h.437V34.9h.863ZM52.241 34.537a.985.985 0 0 1-.05.318.66.66 0 0 1-.375.405.816.816 0 0 1-.595 0 .647.647 0 0 1-.228-.159.71.71 0 0 1-.149-.246.908.908 0 0 1-.053-.318.89.89 0 0 1 .054-.318.713.713 0 0 1 .152-.244.673.673 0 0 1 .23-.157.742.742 0 0 1 .29-.056c.101 0 .2.018.294.056.086.036.164.09.228.157.066.07.117.154.149.244.036.102.054.21.053.318Zm-.426 0a.53.53 0 0 0-.077-.306.255.255 0 0 0-.22-.11.258.258 0 0 0-.223.11.524.524 0 0 0-.078.306.536.536 0 0 0 .078.307.256.256 0 0 0 .223.113.251.251 0 0 0 .22-.113.544.544 0 0 0 .077-.307ZM52.984 34.976a.41.41 0 0 0 .162-.023.087.087 0 0 0 .048-.087.107.107 0 0 0-.062-.088 1.123 1.123 0 0 0-.187-.085 2.072 2.072 0 0 1-.178-.076.513.513 0 0 1-.136-.095.363.363 0 0 1-.087-.13.48.48 0 0 1-.031-.183.4.4 0 0 1 .154-.328.673.673 0 0 1 .423-.12c.087 0 .173.008.258.024.068.012.135.029.2.051l-.072.326a1.516 1.516 0 0 0-.159-.045.862.862 0 0 0-.192-.02c-.131 0-.2.037-.2.11 0 .015.003.03.008.044.008.016.02.03.034.038a.485.485 0 0 0 .069.04c.029.014.066.03.11.046.078.028.154.061.227.1.053.028.1.064.142.106a.33.33 0 0 1 .073.129.558.558 0 0 1 .021.162.375.375 0 0 1-.164.33.814.814 0 0 1-.464.112 1.306 1.306 0 0 1-.507-.09l.07-.34c.07.029.143.05.218.067.073.016.147.024.222.025ZM54.35 34.976a.417.417 0 0 0 .163-.023.088.088 0 0 0 .048-.087.107.107 0 0 0-.062-.088 1.137 1.137 0 0 0-.188-.085 2.233 2.233 0 0 1-.178-.076.55.55 0 0 1-.136-.094.39.39 0 0 1-.087-.13.499.499 0 0 1 .007-.366.4.4 0 0 1 .117-.146.669.669 0 0 1 .423-.12c.087 0 .173.008.258.024.068.012.135.029.2.051l-.072.326a1.402 1.402 0 0 0-.159-.045.862.862 0 0 0-.192-.02c-.13 0-.2.037-.2.11a.1.1 0 0 0 .008.044c.008.016.02.03.034.038a.421.421 0 0 0 .068.04c.03.014.066.03.111.046a1.7 1.7 0 0 1 .227.1c.053.028.101.064.142.106.034.038.058.081.074.129a.562.562 0 0 1 .02.162.377.377 0 0 1-.163.33.816.816 0 0 1-.465.112 1.31 1.31 0 0 1-.508-.09l.07-.34c.071.029.144.05.219.067.073.016.147.024.221.025ZM56.873 35.315c-.315 0-.556-.088-.721-.264-.166-.176-.25-.425-.25-.748a1.158 1.158 0 0 1 .076-.43.928.928 0 0 1 .21-.318.858.858 0 0 1 .314-.2 1.284 1.284 0 0 1 .923.042c.032.017.058.03.073.04l-.127.353a1.04 1.04 0 0 0-.48-.115.58.58 0 0 0-.2.034.438.438 0 0 0-.171.107.537.537 0 0 0-.12.193.82.82 0 0 0-.044.285.997.997 0 0 0 .029.252.464.464 0 0 0 .268.333c.081.035.17.051.258.049a1.271 1.271 0 0 0 .305-.038.711.711 0 0 0 .1-.035l.081-.036.122.35a1.01 1.01 0 0 1-.262.1 1.513 1.513 0 0 1-.384.046ZM57.67 34.55a.889.889 0 0 1 .061-.345.734.734 0 0 1 .158-.245.656.656 0 0 1 .226-.149.717.717 0 0 1 .263-.05.653.653 0 0 1 .5.192c.132.158.197.36.182.565v.08c0 .03 0 .055-.005.078h-.949a.279.279 0 0 0 .121.2.48.48 0 0 0 .287.076c.075 0 .15-.007.225-.021a.814.814 0 0 0 .18-.052l.057.339a.48.48 0 0 1-.09.034 1.74 1.74 0 0 1-.43.059.943.943 0 0 1-.346-.06.67.67 0 0 1-.243-.16.619.619 0 0 1-.143-.243.953.953 0 0 1-.054-.299Zm.983-.16a.41.41 0 0 0-.02-.1.267.267 0 0 0-.046-.09.262.262 0 0 0-.082-.065.26.26 0 0 0-.122-.025.298.298 0 0 0-.12.023.264.264 0 0 0-.136.155.628.628 0 0 0-.028.1l.554.001ZM59.378 33.856a2.25 2.25 0 0 1 .274-.058c.117-.018.236-.027.354-.027a.873.873 0 0 1 .313.05.476.476 0 0 1 .2.139.558.558 0 0 1 .1.213c.02.09.03.182.03.275v.833h-.418V34.5a.556.556 0 0 0-.053-.286.216.216 0 0 0-.2-.085c-.03 0-.062 0-.096.005s-.064.006-.09.009v1.135h-.417l.003-1.42ZM61.019 33.434l.417-.067v.434h.5v.349h-.5v.518a.415.415 0 0 0 .047.211.2.2 0 0 0 .186.078.755.755 0 0 0 .27-.048l.058.326a.985.985 0 0 1-.395.075.743.743 0 0 1-.283-.046.448.448 0 0 1-.18-.129.482.482 0 0 1-.094-.2 1.238 1.238 0 0 1-.026-.261v-1.24ZM62.153 34.55a.889.889 0 0 1 .06-.345.736.736 0 0 1 .159-.245.656.656 0 0 1 .226-.149.718.718 0 0 1 .262-.05.651.651 0 0 1 .5.192c.132.158.197.36.182.565v.08c0 .03 0 .055-.005.078h-.955a.279.279 0 0 0 .12.2.48.48 0 0 0 .29.08 1.197 1.197 0 0 0 .406-.073l.056.339a.473.473 0 0 1-.089.034 1.752 1.752 0 0 1-.43.059.941.941 0 0 1-.346-.06.667.667 0 0 1-.243-.16.62.62 0 0 1-.143-.243.95.95 0 0 1-.05-.302Zm.982-.16a.405.405 0 0 0-.019-.1.268.268 0 0 0-.047-.09.264.264 0 0 0-.082-.065.26.26 0 0 0-.122-.025.3.3 0 0 0-.12.023.263.263 0 0 0-.136.155.618.618 0 0 0-.027.1l.553.001ZM64.746 34.17a3.085 3.085 0 0 0-.131-.028.776.776 0 0 0-.34.007v1.127h-.418v-1.4a2.39 2.39 0 0 1 .266-.075c.111-.025.225-.037.34-.035h.08c.032 0 .065.007.1.012l.101.016a.509.509 0 0 1 .081.024l-.079.353ZM55.132 3.637S52.566 6.48 52.1 9.207c-.466 2.728 1.572 5.94 4.98 7.656 0 0 2.995-3.102 2.072-6.396-.924-3.294-4.178-3.004-4.019-6.83Z" fill="#55A301"/><path d="M57.187 16.084c.052-.61.055-1.223.007-1.833a12.744 12.744 0 0 0-.257-1.787c-.028-.147-.072-.292-.106-.438l-.053-.22-.065-.216c-.044-.145-.087-.289-.129-.435-.04-.146-.1-.284-.15-.428l-.074-.216c-.025-.072-.057-.14-.084-.212a23.152 23.152 0 0 1-.167-.428c-.055-.144-.123-.28-.18-.425-.059-.144-.121-.285-.177-.433.1.118.2.24.3.363.05.061.095.125.143.187.048.062.094.127.135.193.083.132.166.266.247.4.04.068.083.135.119.2l.1.213c.069.14.136.284.2.427.064.143.11.3.166.444.028.074.054.15.079.225l.065.228c.039.153.086.3.117.46.137.62.192 1.256.164 1.891a5.125 5.125 0 0 1-.4 1.84Z" fill="#fff"/><path d="M73.546 14.426s-1.56 4.703-4.333 6.969c-2.772 2.265-7.687 2.02-11.791-.718 0 0 1.575-5.35 5.874-6.414 4.298-1.064 6.045 2.782 10.25.163Z" fill="#55A301"/><path d="M58.162 20.047c.5-.636 1.152-1.145 1.842-1.57l.261-.16c.087-.053.18-.1.27-.144.18-.093.359-.191.548-.269.19-.077.373-.164.564-.236l.579-.2c.095-.035.195-.056.293-.083l.3-.077.3-.075c.1-.02.2-.037.3-.055.2-.034.4-.07.6-.1.2-.031.401-.036.608-.051l.3-.023h.3l.607.009c.05 0 .1 0 .151.006l.151.016a17.66 17.66 0 0 1 .9.113c-.2.025-.4.042-.6.059-.1.009-.2.014-.3.021l-.148.011c-.05 0-.1.013-.148.019l-.59.073c-.1.014-.2.02-.295.035l-.29.051c-.195.035-.39.068-.583.1l-.574.13-.288.062-.282.081c-.188.054-.38.1-.565.16-.748.234-1.477.525-2.18.87-.714.346-1.393.756-2.03 1.227Z" fill="#fff"/></svg>